{"title":"Splice 2010 R5 LKRG","uid":5708243,"size":741665413,"categoryP":"other","categoryS":"other","magnet":"?xt=urn:btih:e7d78ceeaa4b4c2c29efd4c7514f43d6e175fb7f&amp;dn=Splice+2010+R5+LKRG&amp;tr=udp%3A%2F%2Ftracker.openbittorrent.com%3A80&amp;tr=udp%3A%2F%2Fopen.demonii.com%3A1337&amp;tr=udp%3A%2F%2Ftracker.coppersurfer.tk%3A6969&amp;tr=udp%3A%2F%2Fexodus.desync.com%3A6969","seeders":0,"leechers":1,"uploader":"YoCkNeR-BeNzO","files":4,"time":1279783120,"description":"Elsa and Clive, two young rebellious scientists, defy legal and ethical boundaries and forge ahead with a dangerous experiment: splicing together human and animal DNA to create a new organism. Named &quot;Dren&quot;, the creature rapidly develops from a deformed female infant into a beautiful but dangerous winged human-chimera, who forges a bond with both of her creators - only to have that bond turn deadly.\n\n \nMOVIEmeter: Up 200% in popularity this week &lt;a href=&quot;\nhttp://www.imdb.com/title/tt1017460/&quot; rel=&quot;nofollow&quot; target=&quot;_NEW&quot;&gt;\nhttp://www.imdb.com/title/tt1017460/&lt;/a&gt;\nGenre:Horror | Sci-Fi | Thriller \nDirector:Vincenzo Natali\n\n \nVideo\nID : 0\nFormat : MPEG-4 Visual\nFormat profile : Advanced Simple@L5\nFormat settings, BVOP : Yes\nFormat settings, QPel : No\nFormat settings, GMC : No warppoints\nFormat settings, Matrix : Default (H.263)\nMuxing mode : Packed bitstream\nCodec ID : XVID\nCodec ID/Hint : XviD\nDuration : 1h 37mn\nBit rate : 744 Kbps\nWidth : 720 pixels\nHeight : 376 pixels\nDisplay aspect ratio : 1.915\nFrame rate : 25.000 fps\nResolution : 8 bits\nColorimetry : 4:2:0\nScan type : Progressive\nBits/(Pixel*Frame) : 0.110\nStream size : 519 MiB (79%)\nWriting library : XviD 1.2.1 (UTC 2008-12-04)\n\nAudio\nID : 1\nFormat : AC-3\nFormat/Info : Audio Coding 3\nCodec ID : 2000\nDuration : 1h 35mn\nBit rate mode : Constant\nBit rate : 192 Kbps\nChannel(s) : 2 channels\nSampling rate : 48.0 KHz\nStream size : 131 MiB (20%)\nAlignment : Split accross interleaves\nInterleave, duration : 41 ms (1.02 video frame)\nInterleave, preload duration : 500 ms\n\n\n\nScreeenshots\n &lt;a href=&quot;\nhttp://postimg.com/image/19000/18223.jpg&quot; rel=&quot;nofollow&quot; target=&quot;_NEW&quot;&gt;\nhttp://postimg.com/image/19000/18223.jpg&lt;/a&gt;\n &lt;a href=&quot;\nhttp://postimg.com/image/19000/18224.jpg&quot; rel=&quot;nofollow&quot; target=&quot;_NEW&quot;&gt;\nhttp://postimg.com/image/19000/18224.jpg&lt;/a&gt;","torrent":{"xt":"urn:btih:e7d78ceeaa4b4c2c29efd4c7514f43d6e175fb7f","amp;dn":"Splice+2010+R5+LKRG","amp;tr":["udp%3A%2F%2Ftracker.openbittorrent.com%3A80","udp%3A%2F%2Fopen.demonii.com%3A1337","udp%3A%2F%2Ftracker.coppersurfer.tk%3A6969","udp%3A%2F%2Fexodus.desync.com%3A6969"],"infoHash":"e7d78ceeaa4b4c2c29efd4c7514f43d6e175fb7f","infoHashBuffer":{"type":"Buffer","data":[231,215,140,238,170,75,76,44,41,239,212,199,81,79,67,214,225,117,251,127]},"announce":[],"urlList":[]}}